<svg width="32" height="32" viewBox="0 0 32 32" fill="none" xmlns="http://www.w3.org/2000/svg">
<path d="M12.9296 6.36224C12.1874 5.98999 11.3718 5.9312 10.6296 6.07305L8.97729 6.38881C7.7699 6.61954 6.73123 7.39603 6.17161 8.49337C4.25765 12.2464 2.81068 15.3199 2.25219 17.9412C1.67636 20.6439 2.02708 22.9583 3.75986 25.0656C4.91027 26.4646 6.88687 26.1819 7.91467 25.0153C8.70566 24.1175 9.60741 23.0765 10.4877 22.0525C11.0615 21.3851 11.8957 21.0008 12.7725 21.0008H19.2218C20.0985 21.0008 20.9327 21.3851 21.5065 22.0525C22.3868 23.0765 23.2885 24.1175 24.0795 25.0153C25.1073 26.1819 27.0839 26.4646 28.2343 25.0656C29.9671 22.9583 30.3178 20.6439 29.742 17.9412C29.1835 15.3199 27.7366 12.2464 25.8226 8.49337C25.263 7.39603 24.2243 6.61954 23.0169 6.38881L21.3646 6.07305C20.6224 5.9312 19.8068 5.98999 19.0646 6.36224C18.9195 6.43499 18.7719 6.51161 18.623 6.59099C18.1247 6.85666 17.5942 7.00079 17.0712 7.00079H14.923C14.4 7.00079 13.8695 6.85666 13.3712 6.59099C13.2223 6.51161 13.0747 6.43499 12.9296 6.36224ZM11.005 8.0375C11.3915 7.96363 11.748 8.00704 12.033 8.15C12.1613 8.21435 12.2941 8.28321 12.4302 8.3558C13.1802 8.75568 14.0314 9.00079 14.923 9.00079H17.0712C17.9628 9.00079 18.814 8.75568 19.564 8.3558C19.7001 8.28321 19.8329 8.21435 19.9612 8.15C20.2462 8.00704 20.6027 7.96363 20.9892 8.0375L22.6415 8.35326C23.2448 8.46854 23.763 8.85712 24.0409 9.40199C25.9733 13.1911 27.2911 16.0353 27.7859 18.3579C28.2634 20.5991 27.9561 22.255 26.6895 23.7953C26.5672 23.9441 26.4002 24.0136 26.2017 24.0046C25.9916 23.9951 25.7569 23.8938 25.5802 23.6932C24.7967 22.8039 23.9008 21.7697 23.0231 20.7487C22.0716 19.6419 20.6847 19.0008 19.2218 19.0008H12.7725C11.3095 19.0008 9.9226 19.6419 8.97109 20.7487C8.09338 21.7697 7.19747 22.8039 6.41401 23.6932C6.23731 23.8938 6.00256 23.9951 5.79255 24.0046C5.594 24.0136 5.427 23.9441 5.30467 23.7953C4.03813 22.255 3.73078 20.5991 4.20829 18.3579C4.70314 16.0353 6.02093 13.1911 7.9533 9.40199C8.23117 8.85712 8.74943 8.46854 9.3527 8.35326L11.005 8.0375ZM16.001 13.9999C16.8294 13.9999 17.501 13.3284 17.501 12.4999C17.501 11.6715 16.8294 10.9999 16.001 10.9999C15.1726 10.9999 14.501 11.6715 14.501 12.4999C14.501 13.3284 15.1726 13.9999 16.001 13.9999Z" fill="#004275"/>
</svg>
